# Blender 5.1.1
# www.blender.org
mtllib BluePlane.mtl
o Lo_poly_Spaceship_01_by_Liz_Reddington
v 2.911452 -1.222328 -13.894732
v 5.716331 -0.695862 -13.894732
v 2.911452 1.222324 -13.894732
v 5.716331 0.695858 -13.894732
v 2.384889 1.681262 -15.312152
v 6.242893 0.957127 -15.312152
v 2.384889 -1.681266 -15.312152
v 6.242893 -0.957132 -15.312152
v 2.909413 1.063652 -15.312152
v 5.723769 0.605527 -15.312152
v 5.723769 -0.605531 -15.312152
v 2.909413 -1.063656 -15.312152
v 3.228632 0.614117 -14.651984
v 5.331485 0.349610 -14.651984
v 5.331485 -0.349615 -14.651984
v 3.228632 -0.614121 -14.651984
v 2.542281 0.935510 -3.161746
v 4.270042 0.580272 -3.041649
v 3.590889 2.168384 -5.151344
v 4.812204 1.917275 -5.066451
v 4.643566 3.143942 -13.965720
v 5.864882 2.892832 -13.880826
v 3.576288 1.504092 -12.911325
v 5.304049 1.148854 -12.791227
v -1.166757 1.043081 -0.293336
v 1.166757 1.043081 -0.293336
v -0.822917 2.596003 -3.934976
v 0.822917 2.596003 -3.934976
v -1.087049 2.596003 -7.466250
v 1.087049 2.596003 -7.466250
v -1.798324 1.043079 -9.472655
v 1.798324 1.043079 -9.472655
v 6.994222 6.398158 -13.362138
v 7.417994 6.398158 -13.337725
v 7.144521 6.398158 -15.068624
v 7.568294 6.398158 -15.044213
v -1.847746 0.184688 9.292178
v -1.227644 0.184688 9.292178
v -1.847746 -0.435415 9.292178
v -1.227644 -0.435415 9.292178
v 1.238216 0.184688 9.292179
v 1.858319 0.184688 9.292179
v 1.238216 -0.435415 9.292179
v 1.858319 -0.435415 9.292179
v 4.953941 -0.280329 1.122135
v 15.912384 -0.119142 -11.185779
v 4.953941 0.280329 1.122135
v 15.912384 0.119139 -11.185779
v 8.679983 0.438170 -13.048934
v 16.923386 0.119138 -14.357559
v 8.679983 -0.438174 -13.048934
v 16.923386 -0.119143 -14.357559
v 14.175583 0.225482 -13.921350
v 14.175583 -0.225486 -13.921350
v 12.259570 -0.172872 -7.083140
v 12.259570 0.172869 -7.083140
v 11.427783 0.331826 -13.485143
v 11.427783 -0.331830 -13.485143
v 8.606755 -0.226600 -2.980503
v 8.606755 0.226599 -2.980503
v -1.309682 -0.201892 15.375221
v 1.309682 -0.201892 15.375221
v -1.309682 0.201896 15.375221
v 1.309682 0.201896 15.375221
v -8.945601 0.627958 -13.956985
v 8.945601 0.627958 -13.956985
v -8.945601 -0.627962 -13.956985
v 8.945601 -0.627962 -13.956985
v 2.981867 1.911176 -13.956985
v 2.981867 -1.911180 -13.956985
v 0.436560 -0.309663 15.375221
v 0.436560 0.309667 15.375221
v -2.981868 1.911176 -13.956985
v -2.981868 -1.911180 -13.956985
v -0.436561 -0.309663 15.375221
v -0.436561 0.309667 15.375221
v -6.994222 -6.398162 -13.362134
v -7.417994 -6.398162 -13.337721
v -7.144521 -6.398162 -15.068622
v -7.568294 -6.398162 -15.044209
v -2.542281 -0.935510 -3.161746
v -4.270042 -0.580272 -3.041649
v -3.590889 -2.168386 -5.151344
v -4.812204 -1.917276 -5.066451
v -4.643566 -3.143946 -13.965720
v -5.864882 -2.892836 -13.880826
v -3.576288 -1.504095 -12.911325
v -5.304049 -1.148858 -12.791227
v 6.994222 -6.398162 -13.362134
v 7.417994 -6.398162 -13.337721
v 7.144521 -6.398162 -15.068622
v 7.568294 -6.398162 -15.044209
v 2.542281 -0.935510 -3.161746
v 4.270042 -0.580272 -3.041649
v 3.590889 -2.168386 -5.151344
v 4.812204 -1.917276 -5.066451
v 4.643566 -3.143946 -13.965720
v 5.864882 -2.892836 -13.880826
v 3.576288 -1.504095 -12.911325
v 5.304049 -1.148858 -12.791227
v -2.911452 -1.222328 -13.894732
v -5.716331 -0.695862 -13.894732
v -2.911452 1.222324 -13.894732
v -5.716331 0.695858 -13.894732
v -2.384889 1.681262 -15.312152
v -6.242893 0.957127 -15.312152
v -2.384889 -1.681266 -15.312152
v -6.242893 -0.957132 -15.312152
v -2.909413 1.063652 -15.312152
v -5.723769 0.605527 -15.312152
v -5.723769 -0.605531 -15.312152
v -2.909413 -1.063656 -15.312152
v -3.228632 0.614117 -14.651984
v -5.331485 0.349610 -14.651984
v -5.331485 -0.349615 -14.651984
v -3.228632 -0.614121 -14.651984
v -4.953941 -0.280329 1.122135
v -15.912384 -0.119142 -11.185779
v -4.953941 0.280329 1.122135
v -15.912384 0.119139 -11.185779
v -8.679983 0.438170 -13.048934
v -16.923386 0.119138 -14.357559
v -8.679983 -0.438174 -13.048934
v -16.923386 -0.119143 -14.357559
v -14.175583 0.225482 -13.921350
v -14.175583 -0.225486 -13.921350
v -12.259570 -0.172872 -7.083140
v -12.259570 0.172869 -7.083140
v -11.427783 0.331826 -13.485143
v -11.427783 -0.331830 -13.485143
v -8.606755 -0.226600 -2.980503
v -8.606755 0.226599 -2.980503
v -6.994222 6.398158 -13.362138
v -7.417994 6.398158 -13.337725
v -7.144521 6.398158 -15.068624
v -7.568294 6.398158 -15.044213
v -2.542281 0.935510 -3.161746
v -4.270042 0.580272 -3.041649
v -3.576288 1.504092 -12.911325
v -5.304049 1.148854 -12.791227
vn -0.5392 -0.7217 0.4340
vn 0.6867 -0.6255 0.3704
vn -0.5392 0.7217 0.4340
vn 0.6867 0.6255 0.3704
vn -0.6034 0.6891 -0.4013
vn 0.7065 0.5520 -0.4428
vn -0.6034 -0.6891 -0.4013
vn 0.7065 -0.5520 -0.4428
vn -0.0000 -0.0000 -1.0000
vn -0.1617 0.8961 0.4133
vn 0.3733 0.7569 0.5364
vn -0.7683 0.3112 -0.5594
vn 0.6809 -0.5179 -0.5178
vn -0.2393 0.9007 0.3625
vn 0.2393 0.9007 0.3625
vn -0.5153 0.8402 0.1688
vn 0.5153 0.8402 0.1688
vn -0.5042 0.8372 -0.2118
vn 0.5042 0.8373 -0.2118
vn -0.3960 0.7900 -0.4681
vn 0.3960 0.7900 -0.4681
vn -0.3792 0.9112 0.1606
vn 0.7855 0.5546 0.2745
vn -0.3665 0.5347 -0.7615
vn 0.6648 0.3922 -0.6358
vn 0.7179 -0.2850 0.6351
vn 0.6621 -0.6489 0.3748
vn 0.7179 0.2850 0.6351
vn 0.6621 0.6489 0.3748
vn -0.0650 0.8013 -0.5947
vn 0.6369 0.5476 -0.5427
vn -0.0650 -0.8013 -0.5947
vn 0.6369 -0.5476 -0.5427
vn -0.0855 0.7147 -0.6941
vn -0.0855 -0.7147 -0.6941
vn 0.5442 -0.6922 0.4740
vn 0.5442 0.6922 0.4740
vn -0.0841 0.7159 -0.6932
vn -0.0841 -0.7159 -0.6932
vn 0.5445 -0.6914 0.4748
vn 0.5445 0.6914 0.4748
vn -0.5547 -0.5210 0.6487
vn 0.5547 -0.5210 0.6487
vn -0.5547 0.5210 0.6487
vn 0.5547 0.5210 0.6487
vn -0.6942 0.5080 -0.5099
vn 0.6942 0.5080 -0.5099
vn -0.6942 -0.5080 -0.5099
vn 0.6942 -0.5080 -0.5099
vn 0.0790 0.7462 -0.6610
vn 0.0790 -0.7462 -0.6610
vn 0.0662 -0.6945 0.7164
vn 0.0662 0.6945 0.7164
vn -0.0790 0.7462 -0.6610
vn -0.0790 -0.7462 -0.6610
vn -0.0662 -0.6945 0.7164
vn -0.0662 0.6945 0.7164
vn 0.3792 -0.9112 0.1606
vn -0.7855 -0.5546 0.2745
vn 0.3665 -0.5347 -0.7615
vn -0.6648 -0.3922 -0.6358
vn 0.1617 -0.8961 0.4133
vn -0.3733 -0.7569 0.5364
vn 0.7683 -0.3112 -0.5594
vn -0.6809 0.5179 -0.5178
vn -0.3792 -0.9112 0.1606
vn 0.7855 -0.5546 0.2745
vn -0.3665 -0.5347 -0.7615
vn 0.6648 -0.3922 -0.6358
vn -0.1617 -0.8961 0.4133
vn 0.3733 -0.7569 0.5364
vn -0.7683 -0.3112 -0.5594
vn 0.6809 0.5179 -0.5178
vn 0.5392 -0.7217 0.4340
vn -0.6867 -0.6255 0.3704
vn 0.5392 0.7217 0.4340
vn -0.6867 0.6255 0.3704
vn 0.6034 0.6891 -0.4013
vn -0.7065 0.5520 -0.4428
vn 0.6034 -0.6891 -0.4013
vn -0.7065 -0.5520 -0.4428
vn -0.7179 -0.2850 0.6351
vn -0.6621 -0.6489 0.3748
vn -0.7179 0.2850 0.6351
vn -0.6621 0.6489 0.3748
vn 0.0650 0.8013 -0.5947
vn -0.6369 0.5476 -0.5427
vn 0.0650 -0.8013 -0.5947
vn -0.6369 -0.5476 -0.5427
vn 0.0855 0.7147 -0.6941
vn 0.0855 -0.7147 -0.6941
vn -0.5442 -0.6922 0.4740
vn -0.5442 0.6922 0.4740
vn 0.0841 0.7159 -0.6932
vn 0.0841 -0.7159 -0.6932
vn -0.5445 -0.6914 0.4748
vn -0.5445 0.6914 0.4748
vn 0.3792 0.9112 0.1606
vn -0.7855 0.5546 0.2745
vn 0.3665 0.5347 -0.7615
vn -0.6648 0.3922 -0.6358
vn 0.1617 0.8961 0.4133
vn -0.3733 0.7569 0.5364
vn 0.7683 0.3112 -0.5594
vn -0.6809 -0.5179 -0.5178
s 1
usemtl lambert2SG.001
f 3//3 4//4 6//6 5//5
f 7//7 8//8 2//2 1//1
f 2//2 8//8 6//6 4//4
f 7//7 1//1 3//3 5//5
f 5//5 6//6 10//9 9//9
f 6//6 8//8 11//9 10//9
f 8//8 7//7 12//9 11//9
f 7//7 5//5 9//9 12//9
f 36//25 34//23 18//11 24//13
f 35//24 36//25 24//13 23//12
f 33//22 34//23 36//25 35//24
f 45//26 59//40 60//41 47//28
f 47//28 60//41 57//38 49//30
f 49//30 57//38 58//39 51//32
f 51//32 58//39 59//40 45//26
f 46//27 52//33 50//31 48//29
f 53//34 50//31 52//33 54//35
f 55//36 54//35 52//33 46//27
f 56//37 55//36 46//27 48//29
f 53//34 56//37 48//29 50//31
f 61//42 75//56 76//57 63//44
f 63//44 76//57 73//54 65//46
f 65//46 73//54 74//55 67//48
f 67//48 74//55 75//56 61//42
f 62//43 68//49 66//47 64//45
f 67//48 61//42 63//44 65//46
f 69//50 66//47 68//49 70//51
f 71//52 70//51 68//49 62//43
f 72//53 71//52 62//43 64//45
f 69//50 72//53 64//45 66//47
f 73//54 69//50 70//51 74//55
f 76//57 75//56 71//52 72//53
f 77//58 78//59 80//61 79//60
f 80//61 88//65 87//64 79//60
f 80//61 78//59 82//63 88//65
f 89//66 91//68 92//69 90//67
f 92//69 100//73 94//71 90//67
f 92//69 91//68 99//72 100//73
f 93//70 99//72 91//68 89//66
f 103//76 105//78 106//79 104//77
f 107//80 101//74 102//75 108//81
f 102//75 104//77 106//79 108//81
f 107//80 105//78 103//76 101//74
f 105//78 109//9 110//9 106//79
f 106//79 110//9 111//9 108//81
f 108//81 111//9 112//9 107//80
f 107//80 112//9 109//9 105//78
f 117//82 119//84 132//97 131//96
f 119//84 121//86 129//94 132//97
f 121//86 123//88 130//95 129//94
f 123//88 117//82 131//96 130//95
f 118//83 120//85 122//87 124//89
f 125//90 126//91 124//89 122//87
f 127//92 118//83 124//89 126//91
f 128//93 120//85 118//83 127//92
f 125//90 122//87 120//85 128//93
f 133//98 135//100 136//101 134//99
f 136//101 140//105 138//103 134//99
f 18//11 34//23 33//22 17//10
f 35//24 23//12 17//10 33//22
f 134//99 138//103 137//102 133//98
f 135//100 133//98 137//102 139//104
f 136//101 135//100 139//104 140//105
f 78//59 77//58 81//62 82//63
f 79//60 87//64 81//62 77//58
f 93//70 89//66 90//67 94//71
usemtl lambert4SG.001
f 9//9 10//9 11//9 12//9
f 25//14 26//15 28//17 27//16
f 27//16 28//17 30//19 29//18
f 29//18 30//19 32//21 31//20
f 26//15 32//21 30//19 28//17
f 31//20 25//14 27//16 29//18
f 109//9 112//9 111//9 110//9
usemtl lambert3SG.001
f 57//38 53//34 54//35 58//39
f 59//40 58//39 54//35 55//36
f 60//41 59//40 55//36 56//37
f 57//38 60//41 56//37 53//34
f 75//56 74//55 70//51 71//52
f 73//54 76//57 72//53 69//50
f 129//94 130//95 126//91 125//90
f 131//96 127//92 126//91 130//95
f 132//97 128//93 127//92 131//96
f 129//94 125//90 128//93 132//97
l 9 13
l 10 14
l 11 15
l 12 16
l 17 19
l 18 20
l 21 23
l 22 24
l 37 38
l 39 40
l 38 40
l 37 39
l 41 42
l 43 44
l 42 44
l 41 43
l 81 83
l 82 84
l 85 87
l 86 88
l 93 95
l 94 96
l 97 99
l 98 100
l 109 113
l 110 114
l 111 115
l 112 116
